# xmcd CD database file
#
# Track frame offsets:
#	150
#	1355
#	15582
#	27527
#	45687
#	60575
#	76122
#	96047
#	131402
#	158390
#	177155
#	203255
#	222097
#	247870
#	263350
#	275965
#
# Disc length: 3988 seconds
#
# Revision: 0
# Processed by: cddbd v1.5.1PL0 Copyright (c) Steve Scherf et al.
# Submitted via: CDex 1.40Release
#
DISCID=bd0f9210
DTITLE=Bluesmasters - Bluesmastered
DYEAR=1900
DGENRE=Blues
TTITLE0=Entry of te Gladiators
TTITLE1=Looking good
TTITLE2=Out of sight
TTITLE3=Lady Doctor
TTITLE4=Evil
TTITLE5=My baby's quit me
TTITLE6=Singin the Blues
TTITLE7=Leave my girl alone
TTITLE8=Alone in the dark
TTITLE9=Broke and Hungry
TTITLE10=Yov've got me humming
TTITLE11=Talk to me
TTITLE12=It's my soul
TTITLE13=I thank you
TTITLE14=I'll go crazy
TTITLE15=Thunderbird
EXTD=ID3G: 0
EXTT0=
EXTT1=
EXTT2=
EXTT3=
EXTT4=
EXTT5=
EXTT6=
EXTT7=
EXTT8=
EXTT9=
EXTT10=
EXTT11=
EXTT12=
EXTT13=
EXTT14=
EXTT15=
PLAYORDER=
